<?xml version="1.0" encoding="UTF-8" standalone="no"?>
<!-- Created with Inkscape (http://www.inkscape.org/) -->

<svg
   width="33mm"
   height="33mm"
   viewBox="0 0 33 33"
   version="1.1"
   id="svg1"
   xml:space="preserve"
   inkscape:version="1.3-dev (4435d25, 2023-03-12)"
   sodipodi:docname="quality.svg"
   xmlns:inkscape="http://www.inkscape.org/namespaces/inkscape"
   xmlns:sodipodi="http://sodipodi.sourceforge.net/DTD/sodipodi-0.dtd"
   xmlns="http://www.w3.org/2000/svg"
   xmlns:svg="http://www.w3.org/2000/svg"><sodipodi:namedview
     id="namedview1"
     pagecolor="#ffffff"
     bordercolor="#000000"
     borderopacity="0.25"
     inkscape:showpageshadow="2"
     inkscape:pageopacity="0.0"
     inkscape:pagecheckerboard="0"
     inkscape:deskcolor="#d1d1d1"
     inkscape:document-units="mm"
     inkscape:zoom="2.1442755"
     inkscape:cx="-41.272681"
     inkscape:cy="83.711257"
     inkscape:window-width="1920"
     inkscape:window-height="1023"
     inkscape:window-x="0"
     inkscape:window-y="25"
     inkscape:window-maximized="1"
     inkscape:current-layer="layer1" /><defs
     id="defs1"><style
       id="style1">.cls-1{fill-rule:evenodd;}</style></defs><g
     inkscape:label="Layer 1"
     inkscape:groupmode="layer"
     id="layer1"
     transform="translate(-92.827608,-132.24414)"><path
       class="cls-1"
       d="m 109.32496,132.48879 a 2.4499925,2.4500417 0 0 1 1.48428,0.46566 c 0.58472,0.37042 1.23294,1.09803 2.0399,1.5584 1.13239,0.64823 3.23315,-0.24606 4.30998,1.35202 0.62704,0.93133 0.65615,1.66158 0.70377,2.38125 a 4.1909158,4.191 0 0 0 0.98423,2.55058 c 1.3229,1.74361 1.58747,2.91042 0.91279,4.11692 -0.46301,0.82286 -1.4393,1.28323 -1.66418,1.80446 -0.48154,1.1139 0.0503,1.94998 -0.60854,3.24644 a 3.4527431,3.4528125 0 0 1 -2.0981,1.79387 c -0.79373,0.26459 -1.58747,-0.11377 -2.21981,0.15346 -1.11387,0.47096 -1.93671,1.5584 -2.83363,1.83356 a 3.4395142,3.4395833 0 0 1 -2.04519,0 c -0.88634,-0.26458 -1.70917,-1.3626 -2.8204,-1.83091 -0.63499,-0.26459 -1.42872,0.10318 -2.21981,-0.15346 a 3.4395142,3.4395833 0 0 1 -2.10075,-1.79388 c -0.6588,-1.29645 -0.127,-2.13254 -0.60853,-3.24643 -0.22489,-0.52917 -1.201191,-0.98161 -1.664195,-1.80446 -0.679965,-1.21179 -0.404805,-2.38125 0.915444,-4.11692 a 4.2332482,4.2333333 0 0 0 0.984231,-2.55058 c 0.045,-0.72232 0.0741,-1.45257 0.70377,-2.38125 1.07419,-1.5875 3.17494,-0.70379 4.30998,-1.35202 0.79373,-0.46038 1.45783,-1.18798 2.03725,-1.55575 a 2.4579298,2.4579792 0 0 1 1.49751,-0.47096 z m -0.14551,6.84477 c 0.14815,-0.75142 1.37845,-0.0609 1.45782,1.14829 a 5.1645629,5.1646667 0 0 1 -0.10583,1.28323 h 1.75679 c 0.73024,0.0291 1.36788,0.55298 0.9181,1.41023 0.10317,0.37571 0.11905,0.81492 -0.1614,0.9869 a 1.4419502,1.4419792 0 0 1 -0.43391,1.24618 1.4763453,1.476375 0 0 1 -0.22489,0.75936 c -0.23547,0.33337 -0.42862,0.26458 -0.79373,0.26458 h -2.97121 a 1.1376854,1.1377083 0 0 1 -1.03186,-0.52917 v -3.2967 c 0.88369,-0.23813 1.35199,-1.44992 1.58747,-2.24367 v -1.02659 z m -3.6697,2.80458 h 1.34405 a 0.28045269,0.28045833 0 0 1 0.28046,0.28046 v 3.73592 a 0.28045269,0.28045833 0 0 1 -0.28046,0.2831 h -1.34405 a 0.28309848,0.28310417 0 0 1 -0.28045,-0.2831 v -3.73592 a 0.28309848,0.28310417 0 0 1 0.28045,-0.28046 z m 0.77257,2.47915 a 0.35453455,0.35454167 0 1 1 -0.35454,0.35454 0.35453455,0.35454167 0 0 1 0.35454,-0.35454 z m -8.278652,17.78794 3.071752,-0.54769 1.51603,2.71198 c 1.098,1.3626 1.79648,-0.87577 2.11663,-1.65629 l 2.92358,-5.55361 c -0.67996,-0.23548 -1.49751,-0.9181 -2.34151,-1.6801 -1.68008,0.0344 -3.24638,-0.26459 -4.3973,-1.72244 l -3.389235,6.53785 -0.296327,0.62971 c -0.230183,0.81757 -0.108477,1.35732 0.793734,1.28059 z m 22.639942,0 -3.05587,-0.54769 -1.51604,2.71198 c -1.10064,1.3626 -1.79913,-0.87577 -2.11662,-1.65629 l -2.93946,-5.55361 c 0.67996,-0.23548 1.50015,-0.9181 2.34151,-1.6801 1.68007,0.0344 3.24638,-0.26459 4.39728,-1.72244 l 3.3919,6.54844 0.30162,0.61912 c 0.23018,0.81757 0.10848,1.35732 -0.79373,1.28059 z m -11.31865,-25.86038 a 6.6514913,6.651625 0 1 1 -6.66207,6.65163 6.6488456,6.6489792 0 0 1 6.66207,-6.65163 z"
       id="path1"
       style="stroke-width:0.26458" /></g></svg>
